<?xml version="1.0" encoding="utf-8"?>
<!-- Generator: Adobe Illustrator 25.0.0, SVG Export Plug-In . SVG Version: 6.00 Build 0)  -->
<svg version="1.1" xmlns="http://www.w3.org/2000/svg" xmlns:xlink="http://www.w3.org/1999/xlink" x="0px" y="0px"
	 viewBox="0 0 1700 400" style="enable-background:new 0 0 1700 400;" xml:space="preserve">
<style type="text/css">
	.st0{fill-rule:evenodd;clip-rule:evenodd;fill:#F4C092;}
	.st1{fill:#EADEC7;}
	.st2{fill-rule:evenodd;clip-rule:evenodd;}
</style>
<g id="Camada_1">
	<g>
		<g id="Icone_1_">
			<path class="st0" d="M312.69,214.72c-1.69-14.86,0.5-45.92,0.64-47.81c0.93-11.93-4.66-59.04-15.22-54.7
				C280.4,98.18,256.8,95.08,234.74,93.6c-45.83-3.08-94.59,3.98-129.98,34.84c-17.5,16.03-34.54,39.34-33.17,63.61
				c-15.9,23.01-38.32,54.56-18.5,81.46c6.73,8.59,17.44,11.79,25.9,18.3c17.02,13.73,27.69,33.44,44.87,47.09
				c45.51,40.92,122.79,49.46,167.5,2.92c34.58-33.71,28.99-84.13,22.91-127.1C310.17,185.83,315.99,243.71,312.69,214.72z"/>
			<g>
				<path d="M322.58,75.72c-1.48-0.26-3.3-2.46-3.81-4.31c-4.22-15.26-7.63-24.32-28.26-21.3c-6.28,0.92-9.13-0.06-12.54-3.26
					c-13.44-12.64-26.48-15.99-41.42-13.84c-2.27,0.32-4.97-0.41-7.37-1.11c-8.87-2.55-16.26-9.86-26.18-5.66
					c-7.01,2.98-14.1,7.35-20.68-1.01c-13.59,1.11-28.56-5.23-39.64,9.49c-1.35,1.78-4.97,3.41-6.64,2.66
					c-14.68-6.56-30.94-2.57-40.67,12.26c-4.05,6.19-8.34,6.88-14.25,7.31c-9.99,0.73-23.27,9.47-23.25,21.68
					c0.02,6.49-3.17,10.05-7.01,12.62c-9.41,6.24-14.36,14.46-12.77,26.91c0.88,6.99,3.43,10.67-1.48,15.69
					c-1.89,1.95-2.94,5.76-3.09,8.79c-0.41,9-1.05,18.15,4.41,26.06c0.92,1.31,1.11,3.54,1.05,5.29c-0.21,6-1.8,12.24-0.84,17.93
					c1.44,8.44,4.18,16.63,6.71,24.81c0,0.02,0,0.02,0,0.02c0.04,0.11,0.06,0.24,0.11,0.36c0.09,0.28,0.17,0.58,0.26,0.88
					c-0.41,0.86-0.77,1.74-1.14,2.59c-2.57,6.28-4.54,13.05-5.7,19.73c-2.16,12.6-0.84,26.78,8.76,36.23
					c3.81,3.75,9.73,6.75,15.56,7.56c-1.86,1.91-3.36,4.18-4.56,6.81c-2.25,4.89,1.5,11.51,7.46,9.69c1.14-0.34,2.25-0.77,3.34-1.26
					c1.71,3.41,5.38,5.7,9.3,5.12c2.29-0.36,3.94-1.24,5.06-2.49c2.85,6.26,6.6,11.96,11.38,16.99
					c5.04,5.31,10.61,10.11,15.62,15.47c4.89,5.19,7.78,11.96,13.54,16.22c1.8,1.33,4.54-0.09,5.04-2.04
					c1.95-7.65-3.3-14.01-8.29-19.28l-0.62-0.64c-5.36-5.57-11.53-10.22-17.23-15.41c-5.91-5.38-10.67-11.1-14.96-17.85
					c-0.36-0.58-0.75-1.18-1.11-1.78l-1.69-2.74c-0.09-0.39-0.17-0.79-0.28-1.18c-0.09-1.54-0.6-3.02-1.61-4.37
					c-1.22-1.67-2.87-2.94-4.71-3.51c-0.62-0.66-1.26-1.29-1.95-1.89c0.86-0.9,1.59-1.99,2.21-3.26c1.18-2.34-0.19-6.06-3.3-5.74
					c-1.95,0.17-3.84-0.21-5.79,0.02c-1.93,0.26-3.84,0.58-5.79,0.32c-3.47-0.49-6.6-2.38-8.85-5.04
					c-5.68-6.6-6.26-16.07-5.08-24.32c0.26-1.89,0.62-3.75,1.07-5.61c0.39-1.76,0.84-3.51,1.31-5.25l1.46-5.51
					c0.84-3.09,1.86-6.28,3.84-8.76c3.04-3.86,7.14-4.33,11.27-3.28c4.31,1.11,8.64,3.9,11.87,6.3l0.58,0.45
					c0.06,0.04,0.11,0.04,0.15,0.04c0.34,0.56,0.71,1.09,1.07,1.61c2.1,2.83,4.61,5.31,7.22,7.67l0.51,0.49
					c0.36,0.32,0.73,0.64,1.07,0.94c3.04,2.68,7.16,0.71,7.56-3.13c0.75-7.22,0.54-14.53,1.01-21.79
					c0.45-7.26,1.29-14.51,2.53-21.68c1.24-7.16,2.85-14.25,4.8-21.23c0.99-3.51,2.06-6.99,3.19-10.44
					c0.88-2.66,1.54-6.94,3.84-8.81c1.95-1.56,5.51-1.91,8.06-2.4c6.09,2.01,13.24,3.54,20.31,3.21c7.22-0.34,14.34-2.51,20.27-4.97
					c3.69,1.14,7.46,1.8,11.36,1.09c3.26-0.6,6.26-2.04,9.04-3.81c8.74,2.85,18.47,2.89,27.56,2.34c6.86-0.43,14.14-1.33,19.82-5.55
					c1.26-0.94,2.4-2.01,3.39-3.19c0.26-0.3,0.51-0.62,0.75-0.94c0.43,0.11,0.84,0.19,1.26,0.3c6.47,1.59,12.88,3.62,19.65,3.32
					c3.34-0.15,6.6-0.84,9.39-2.46c2.46,0,4.91,0,7.37,0.02c0.45,0,0.92-0.04,1.39-0.06c1.39-0.06,2.83-0.13,3.62,0.69
					c0.06,0.06,0.11,0.11,0.17,0.17c1.76,0.26,3.58,0.21,5.44-0.17c2.25-0.47,4.26-1.61,5.91-3.17c0.54,0.34,1.09,0.66,1.65,1.01
					c3.6,3.88,8.38,6.32,13.78,6.79c0.84,0.09,1.67,0.09,2.51,0.04c0.21,2.38,0.36,4.74,0.47,7.11c0.58,12.51,1.24,25.05,1.93,37.56
					l0.21,4.05c0.17,3.43,0.34,6.86,0.51,10.31c0.15,3.36,0.3,6.75,0.45,10.14c0.69,16.56,1.14,33.17,1.26,49.76
					c0.02,0.94,0.04,1.89,0.04,2.83c0.17,22.18-1.2,44.08-13.2,63.38c-10.14,16.29-25.93,29.23-44.25,35.06
					c-11.27,3.56-23.21,4.71-34.95,3.56c-5.74-0.56-11.42-1.86-16.91-3.62l-0.79-0.26c-5.53-1.69-10.76-2.53-16.52-3.24
					c-3.79-0.47-4.71,4.48-2.81,6.79c4.03,4.89,8.36,8.14,14.34,10.35c5.42,2.01,11.19,3.28,16.88,4.09
					c11.79,1.69,23.66,1.52,35.29-1.16c21.6-4.93,40.69-17.91,53.98-35.51c14.59-19.35,19.31-42.45,19.61-66.28
					c0.11-8.01,0.06-16.05-0.13-24.08c0.04-0.02,0.09-0.06,0.13-0.11c0.39-110.85,9.11-114.38,9.11-114.38
					c-0.43-2.08-0.32-4.8,0.45-5.98C345.14,106.64,334.67,77.84,322.58,75.72z"/>
				<path d="M58.72,242.38c-0.69,2.66,0.43,5.91,2.94,7.24c0.86,0.45,1.8,0.73,2.76,0.81c0.15,0.02,0.32,0.04,0.47,0.04
					c1.61,0.09,2.96-0.66,4.16-1.59l0.36-0.28c0.54-0.43,0.96-0.99,1.31-1.61c2.94,3.79,5.4,8.25,10.59,8.4
					c2.46,0.06,5.27-1.91,5.76-4.41c0.06-0.24,0.11-0.49,0.15-0.73c0.49-2.34,0.15-5.08-1.78-6.77c-3.88-3.36-7.86-6.54-12.54-8.7
					c-1.84-0.86-4.14-1.97-6.47-2.72c-2.36-0.75-4.76-1.14-6.81-0.45c-1.74,0.56-2.25,2.4-1.46,3.75H58.1l0.15,0.26
					c0.73,1.11,1.65,1.86,2.68,2.55l0.47,0.34C60.11,239.43,59.15,240.73,58.72,242.38z"/>
			</g>
		</g>
		<g>
			<g>
				<path class="st1" d="M505.4,320.87c-63.67,0-109.88-50.89-109.88-121c0-72.19,45.65-120.69,113.58-120.69
					c27.67,0,51.84,7.41,69.89,21.42c18.2,14.13,29.35,34.28,32.22,58.26l0.6,5.04h-51.86l-1.04-3.05
					c-7.6-22.28-23.8-33.11-49.51-33.11c-37.2,0-58.54,26.07-58.54,71.52c0,43.02,24.58,73.06,59.78,73.06
					c21.83,0,46.4-13.16,51.87-37.66h-50.5v-47.63h99.23v130.14h-36.07l-4.47-24.81C553.62,312,533.1,320.87,505.4,320.87z"/>
				<path d="M509.11,83.68c54.39,0,92.09,29.36,97.65,75.71h-43.57c-8.96-26.27-28.43-36.16-53.77-36.16
					c-39.25,0-63.04,27.5-63.04,76.02c0,46.35,26.88,77.56,64.28,77.56c27.5,0,54.08-18.54,57.17-46.66h-51.3v-38.63h90.23v121.14
					h-27.81l-5.56-30.9c-17.3,23.8-37.7,34.61-67.98,34.61c-60.88,0-105.38-48.21-105.38-116.5
					C400.02,129.72,444.21,83.68,509.11,83.68 M509.11,74.68c-17.16,0-33.25,3.01-47.82,8.96c-14.43,5.89-27.08,14.52-37.6,25.65
					c-21.37,22.62-32.66,53.94-32.66,90.58c0,72.72,48.1,125.5,114.38,125.5c25.85,0,45.76-7.35,62.47-23.46l2.22,12.35l1.33,7.41
					h7.52h27.81h9v-9V191.52v-9h-9h-90.23h-9v9v38.63v9h9h39.89c-7.16,18.13-27.31,28.66-45.76,28.66
					c-33.06,0-55.28-27.55-55.28-68.56c0-43.22,19.19-67.02,54.04-67.02c23.88,0,38.25,9.55,45.25,30.06l2.08,6.09h6.44h43.57h10.14
					l-1.21-10.07c-3.02-25.2-14.76-46.39-33.93-61.27C562.91,82.41,537.79,74.68,509.11,74.68L509.11,74.68z"/>
			</g>
			<g>
				<rect x="635.95" y="141.29" class="st1" width="52.26" height="175.87"/>
				<path d="M683.71,145.79v166.87h-43.26V145.79H683.71 M692.71,136.79h-9h-43.26h-9v9v166.87v9h9h43.26h9v-9V145.79V136.79
					L692.71,136.79z"/>
			</g>
			<g>
				<rect x="636.57" y="77.94" class="st1" width="52.26" height="52.26"/>
				<path d="M684.33,82.44v43.26h-43.26V82.44H684.33 M693.33,73.44h-9h-43.26h-9v9v43.26v9h9h43.26h9v-9V82.44V73.44L693.33,73.44z
					"/>
			</g>
			<g>
				<rect x="714.13" y="82.88" class="st1" width="52.26" height="234.28"/>
				<path d="M761.9,87.38v225.28h-43.26V87.38H761.9 M770.9,78.38h-9h-43.26h-9v9v225.28v9h9h43.26h9v-9V87.38V78.38L770.9,78.38z"
					/>
			</g>
			<g>
				<path class="st1" d="M855.22,319.94c-43.95,0-74.65-37.18-74.65-90.41c0-25.26,7.51-48.35,21.14-65
					c13.74-16.78,32.74-26.02,53.5-26.02c17.42,0,30.9,5.14,41.54,16.01V82.88h52.26v234.28h-52.26v-12.07
					C885.77,315.06,872.07,319.94,855.22,319.94z M864.8,183.66c-19.42,0-31.96,18.01-31.96,45.87c0,27.49,12.55,45.25,31.96,45.25
					c19.42,0,31.96-17.52,31.96-44.63C896.77,201.48,884.52,183.66,864.8,183.66z"/>
				<path d="M944.53,87.38v225.28h-43.26V293.5c-10.82,14.21-25.34,21.94-46.04,21.94c-44.19,0-70.15-38.63-70.15-85.91
					c0-50.37,30.28-86.53,70.15-86.53c20.7,0,35.23,7.73,46.04,24.41V87.38H944.53 M864.8,279.29c21.63,0,36.47-18.85,36.47-49.13
					c0-31.83-14.52-50.99-36.47-50.99c-21.63,0-36.46,19.47-36.46,50.37C828.34,260.13,843.17,279.29,864.8,279.29 M953.53,78.38h-9
					h-43.26h-9v9v57.43c-10.18-7.25-22.45-10.81-37.04-10.81c-22.14,0-42.38,9.83-56.99,27.67c-14.29,17.46-22.16,41.55-22.16,67.85
					c0,25.65,7.24,49.15,20.38,66.18c6.98,9.04,15.43,16.1,25.11,20.99c10.18,5.13,21.51,7.74,33.65,7.74
					c14.41,0,26.67-3.34,37.04-10.15v7.37h9h43.26h9v-9V87.38V78.38L953.53,78.38z M864.8,270.29c-7.86,0-14.29-3.29-19.12-9.78
					c-5.46-7.33-8.34-18.04-8.34-30.97c0-25.13,10.78-41.37,27.46-41.37c7.98,0,14.43,3.31,19.18,9.85
					c5.42,7.46,8.29,18.57,8.29,32.14c0,12.75-2.87,23.3-8.3,30.5C879.14,267.04,872.69,270.29,864.8,270.29L864.8,270.29z"/>
			</g>
			<g>
				<path class="st1" d="M1040.33,319.94c-24.64,0-45.12-8.1-59.21-23.43c-14.14-15.39-21.62-37.91-21.62-65.12
					c0-28.42,7.54-51.98,21.79-68.14c14.28-16.18,35.01-24.74,59.96-24.74c25.42,0,46.5,9.08,60.96,26.25
					c14.21,16.87,21.72,41.31,21.72,70.65v0.13l-0.57,9.62h-111.34c2.15,27.01,13.52,32.72,29.84,32.72
					c9.19,0,25.15-1.75,28.76-13.51l0.98-3.18h51.97l-1.69,5.76C1112.2,300.13,1081.71,319.94,1040.33,319.94z M1069.2,207.42
					c-2.99-17.36-13-26.85-28.56-26.85c-15.12,0-24.16,8.79-27.52,26.85H1069.2z"/>
				<path d="M1041.26,143.01c49.13,0,78.18,34.92,78.18,92.4l-0.31,5.25h-111.86c1.24,32.45,14.21,41.72,34.61,41.72
					c15.76,0,29.36-4.64,33.06-16.69h42.65c-9.58,32.76-39.86,49.75-77.26,49.75c-47.28,0-76.33-30.59-76.33-84.05
					C964,175.45,993.36,143.01,1041.26,143.01 M1007.88,211.92h66.44c-2.16-23.79-15.14-35.84-33.68-35.84
					C1021.48,176.07,1010.66,188.74,1007.88,211.92 M1041.26,134.01c-26.28,0-48.18,9.08-63.34,26.26
					C962.93,177.26,955,201.85,955,231.39c0,28.36,7.89,51.93,22.81,68.16c14.97,16.28,36.58,24.89,62.52,24.89
					c43.49,0,75.6-21.02,85.89-56.22l3.37-11.53h-12.01h-42.65h-6.65l-1.95,6.35c-2.87,9.33-18.06,10.33-24.46,10.33
					c-11.38,0-21.8-1.99-24.83-23.72h102.09h8.49l0.5-8.47l0.31-5.25l0.02-0.26v-0.26c0-30.42-7.88-55.86-22.78-73.55
					C1090.31,143.64,1068.04,134.01,1041.26,134.01L1041.26,134.01z M1018.81,202.92c4.65-15.77,14.4-17.84,21.83-17.84
					c13.68,0,20.07,8.36,22.9,17.84H1018.81L1018.81,202.92z"/>
			</g>
			<g>
				<path class="st1" d="M1328.17,317.16V201.41c0-10.89-6.92-17.13-18.98-17.13c-15.99,0-25.17,10.3-25.17,28.26v104.62h-52.26
					V201.41c0-10.89-6.92-17.13-18.99-17.13c-15.99,0-25.17,10.3-25.17,28.26v104.62h-52.26V141.29h51.95v13.73
					c12.25-11.75,24.54-16.51,41.23-16.51c19.96,0,36.33,7.72,45.96,21.4c12.87-14.75,28.01-21.4,48.29-21.4
					c17.57,0,32.18,5.15,42.23,14.91c10.09,9.79,15.43,24.04,15.43,41.2v122.55H1328.17z"/>
				<path d="M1322.78,143.01c33.37,0,53.15,19.16,53.15,51.61v118.04h-43.26V201.41c0-13.29-8.96-21.63-23.49-21.63
					c-18.54,0-29.67,12.36-29.67,32.76v100.12h-43.26V201.41c0-13.29-8.96-21.63-23.49-21.63c-18.54,0-29.67,12.36-29.67,32.76
					v100.12h-43.26V145.79h42.95v20.7c14.21-16.99,26.58-23.49,45.73-23.49c20.7,0,37.39,8.96,45.43,24.72
					C1286.94,150.42,1301.77,143.01,1322.78,143.01 M1322.78,134.01c-19.84,0-35.07,5.94-48.04,19.01
					c-4.05-4.58-8.92-8.46-14.46-11.47c-9.1-4.93-20.08-7.54-31.75-7.54c-14.56,0-25.97,3.34-36.73,11.28v-8.49h-9h-42.95h-9v9
					v166.87v9h9h43.26h9v-9V212.54c0-10.84,3.59-23.76,20.67-23.76c6.61,0,14.49,2.19,14.49,12.63v111.25v9h9h43.26h9v-9V212.54
					c0-10.84,3.59-23.76,20.67-23.76c6.61,0,14.49,2.19,14.49,12.63v111.25v9h9h43.26h9v-9V194.61
					C1384.93,157.23,1361.12,134.01,1322.78,134.01L1322.78,134.01z"/>
			</g>
			<g>
				<path class="st1" d="M1447.63,319.94c-33.52,0-55.18-20.57-55.18-52.4c0-31.41,16.3-48.31,52.85-54.8l17.3-3.09
					c3.8-0.65,7.36-1.14,10.49-1.57c16.18-2.21,20.41-3.22,20.41-13.47c0-3.33,0-12.19-20.53-12.19c-20.17,0-24.38,4.96-26.13,18.93
					l-0.49,3.94h-50.53l0.35-4.82c2.96-41.12,28.49-61.96,75.87-61.96c60.17,0,72.79,30.34,72.79,55.8v92.71
					c0,6.88,1.27,10.5,8.43,17.08l1.45,1.34v11.73h-53.61l-1.35-1.66c-3.18-3.91-4.69-8.83-5.39-13.93
					C1480.16,313.77,1464.48,319.94,1447.63,319.94z M1493.5,240.64c-2.88,0.92-6.45,1.67-12.89,2.89l-14.84,2.78
					c-18.12,3.44-21.05,7.62-21.05,16.28c0,3.32,0,13.42,18.99,13.42c24.63,0,29.8-18.89,29.8-34.75V240.64z"/>
				<path d="M1472.05,143.01c45.12,0,68.29,17.31,68.29,51.3v92.71c0,8.65,2.16,13.29,9.89,20.39v5.25h-46.97
					c-4.02-4.94-4.94-12.36-4.94-21.01c-15.14,15.76-32.14,23.79-50.68,23.79c-27.81,0-50.68-15.45-50.68-47.9
					c0-30.28,16.07-44.5,49.14-50.37l17.31-3.09c21.63-3.71,34.61-1.85,34.61-19.47c0-11.13-8.34-16.69-25.03-16.69
					c-21.32,0-28.43,5.56-30.59,22.87h-41.72C1403.44,162.17,1426.93,143.01,1472.05,143.01 M1463.7,280.52
					c21.94,0,34.3-14.21,34.3-39.24v-7.42c-4.94,2.47-6.8,3.09-18.23,5.25l-14.83,2.78c-17.92,3.4-24.72,8.03-24.72,20.7
					C1440.22,274.96,1449.18,280.52,1463.7,280.52 M1472.05,134.01c-24.55,0-43.81,5.52-57.24,16.42
					c-13.77,11.17-21.55,27.9-23.12,49.72l-0.69,9.65h9.67h36.58c-15.18,3.54-26.5,9.13-34.46,17.01
					c-9.98,9.89-14.83,23.21-14.83,40.73c0,17.93,6.24,32.77,18.04,42.94c10.6,9.13,25,13.96,41.64,13.96
					c15.71,0,30.43-5,43.94-14.89c1.04,3.14,2.54,6.13,4.7,8.79l2.7,3.32h4.28h46.97h9v-9v-5.25v-3.95l-2.91-2.67
					c-6.41-5.9-6.98-8.33-6.98-13.77V194.3c0-19.89-7.01-35.23-20.83-45.6C1515.51,138.95,1496.51,134.01,1472.05,134.01
					L1472.05,134.01z M1450.65,207.22l0.66-5.31c1.42-11.32,3.41-14.98,21.66-14.98c16.03,0,16.03,5.19,16.03,7.69
					c0,6.11,0,6.75-16.52,9.01c-3.17,0.43-6.76,0.93-10.61,1.58l-0.03,0.01l-0.03,0.01L1450.65,207.22L1450.65,207.22z
					 M1463.7,271.52c-14.49,0-14.49-5.8-14.49-8.92c0-5.34,0-8.56,17.4-11.86l14.81-2.78c2.96-0.56,5.35-1.03,7.36-1.47
					C1487.39,263.11,1478.97,271.52,1463.7,271.52L1463.7,271.52z"/>
			</g>
			<g>
				<path class="st1" d="M1567.37,317.16V141.29h52.26v19.88c10.51-14.43,25.36-22.66,41.85-22.66c1.29,0,3.06,0,5.81,0.34
					l3.94,0.49v53.12l-5.2-0.82c-5.87-0.93-8.64-1.18-12.89-1.18c-22.86,0-33.51,10.65-33.51,33.51v93.19H1567.37z"/>
				<path d="M1661.48,143.01c1.24,0,2.78,0,5.25,0.31v43.88c-5.87-0.93-8.96-1.24-13.6-1.24c-25.34,0-38.01,12.67-38.01,38.01v88.69
					h-43.26V145.79h43.26v32.76C1624.4,155.99,1641.71,143.01,1661.48,143.01 M1661.48,134.01c-14.05,0-26.96,5.42-37.35,15.22
					v-3.43v-9h-9h-43.26h-9v9v166.87v9h9h43.26h9v-9v-88.69c0-20.33,8.68-29.01,29.01-29.01c3.98,0,6.6,0.24,12.19,1.13l10.4,1.64
					V187.2v-43.88v-7.95l-7.89-0.98C1664.82,134.01,1662.81,134.01,1661.48,134.01L1661.48,134.01z"/>
			</g>
		</g>
		<path class="st2" d="M253.77,320.77c-6.13,1.78-12.71,1.93-18.96,0.1c-5.67-1.66-11.49-5.32-15.66-10.17
			c-3.71-4.3-6.11-9.53-6.01-15.11c0.01-0.64,0.24-1.17,0.59-1.58c0.38-0.44,0.9-0.75,1.47-0.88c0.58-0.14,1.19-0.09,1.72,0.15
			c0.47,0.22,0.88,0.58,1.13,1.11c0.64,0.84,1.28,1.67,1.92,2.48c5.15,6.36,10.15,11.12,17.9,12.83c4.21,0.93,8.41,0.52,12.26-0.9
			c4.13-1.51,7.85-4.17,10.78-7.57c1.32-1.54,2.88-2.16,4.4-2.18c1.73-0.01,3.44,0.79,4.72,2.07c1.26,1.26,2.11,2.98,2.19,4.77
			c0.07,1.57-0.45,3.22-1.81,4.68C265.91,315.41,260.08,318.95,253.77,320.77z M253.58,241.06c6.28,3.82,15.86,12.73,9.1,22.19
			c-7.96,8.35-19.41-1.22-25.06-5.55c-5.24-3.36-11.12,5.27-6.26,9.19c40.8,30.2,57.35-24.83,25.4-30.32
			C253.24,235.97,251.93,239.88,253.58,241.06z M194.79,224.26c-2.02-1.29-4.4-1.74-7.03-0.54c-2.06,0.94-5.67,4.05-8.18,8.16
			c-1.72,2.81-2.94,6.1-2.68,9.52c0.06,0.8-0.24,1.38-0.7,1.82c-0.37,0.34-0.9,0.59-1.52,0.67c-0.53,0.07-1.12,0.01-1.6-0.14
			c-0.91-0.29-1.4-0.88-1.58-1.36c-1.76-4.67-1-9.88,0.97-14.58c2.66-6.34,7.49-11.66,10.66-13.37c5.42-2.93,11.8-3.07,17.23-0.08
			c4.62,2.54,7.5,6.65,10.37,10.84c0.61,0.89,1.22,1.77,1.84,2.64c1.25,1.74,1.38,3.46,0.89,4.94c-0.54,1.64-1.91,3.02-3.63,3.74
			c-1.59,0.67-3.43,0.76-5.06,0.08c-1.38-0.58-2.64-1.71-3.44-3.63C200,229.72,197.76,226.16,194.79,224.26L194.79,224.26z
			 M297.38,231.45c-1.38,0.72-2.47,0.94-4,0.48c-0.85-0.25-1.69-0.74-2.34-1.4c-0.65-0.65-1.12-1.46-1.3-2.36
			c-0.45-2.22-1.66-4.29-3.39-5.64c-1.48-1.16-3.34-1.77-5.41-1.42c-2.23,0.37-4.36,1.8-5.82,3.49c-0.49,0.56-0.87,1.21-1.26,1.84
			c-0.72,1.19-1.42,2.3-2.42,3.17c-0.38,0.33-0.94,0.56-1.5,0.56c-0.22,0-0.45-0.04-0.67-0.1c-2.22-2.23-2.65-3.92-2.58-5.6
			c0.07-1.76,0.77-3.54,1.89-5.2c2.63-3.9,7.62-7.09,10.98-7.81c4.61-0.99,9.19,0.2,12.86,2.77c3.78,2.65,6.58,6.76,7.45,11.4
			c0.21,1.12,0.12,2.32-0.3,3.37C299.16,230.02,298.44,230.9,297.38,231.45z M204.96,182.72c-2.77,2.7-6.04,3.11-9.36,3.48
			c-1.84,0.21-3.31,0.38-4.76,0.7c-3.97,0.9-7.9,2.25-11.49,4.19c-3.75,2.03-7.83,4.49-10.77,7.63c-0.7,0.75-1.36,1.53-2.02,2.32
			c-0.6,0.72-1.18,1.41-1.79,2.07c-0.7,0.76-1.37,1.57-2.03,2.37c-0.41,0.67-0.49,0.84-0.57,1.01c-0.12,0.26-0.27,0.55-0.43,0.86
			c-0.23,0.43-0.49,0.89-0.77,1.32c-0.46,0.77-0.71,0.99-0.92,1.08c-0.35,0.16-0.69,0.24-1.02,0.19c-0.31-0.04-0.59-0.19-0.88-0.43
			c-1.42-1.2-1.84-3.17-1.8-5.26c0.07-3.17,1.24-6.69,2.31-8.84c2.51-5.02,5.99-10.23,10.17-13.98c4.77-4.27,10-7.51,15.99-9.74
			c3.73-1.39,8.04-2.66,12.1-2.5c2.92,0.12,5.71,0.98,8.02,3.15c1.42,1.33,2.09,3.23,2.09,5.12
			C207.07,179.42,206.36,181.36,204.96,182.72z M303,207.41c-0.18,0.29-0.42,0.49-0.69,0.61c-0.28,0.13-0.6,0.16-0.91,0.11
			c-0.3-0.05-0.59-0.19-0.82-0.4c-0.22-0.2-0.39-0.47-0.46-0.79c-1.84-8.07-5.4-14.07-13.02-17.94c-3.75-1.9-8.05-3.11-12.13-4.08
			c-1.18-0.28-2.44-0.46-3.7-0.65c-3.95-0.58-7.93-1.24-10.51-4.43c-1.55-1.92-2.2-4.38-1.84-6.63c0.35-2.12,1.58-4.06,3.84-5.22
			c5.6-2.9,12.57-0.05,18.22,2.37c0.42,0.18,0.83,0.36,1.23,0.53c5.53,2.34,10.58,5.42,14.73,9.83c3.29,3.5,6.34,8.67,7.57,13.99
			C305.55,199.1,305.31,203.62,303,207.41z"/>
	</g>
</g>
<g id="Camada_2">
</g>
</svg>
